Coordinates
version=1
nRows=13
nColumns=40
inDegrees=yes

Units are S.I. units (second, meters, Newtons, ...)
If the header above contains a line with 'inDegrees', this indicates whether rotational values are in degrees (yes) or radians (no).

endheader
time	pelvis_tilt	pelvis_list	pelvis_rotation	pelvis_tx	pelvis_ty	pelvis_tz	hip_flexion_r	hip_adduction_r	hip_rotation_r	knee_angle_r	knee_angle_r_beta	ankle_angle_r	subtalar_angle_r	mtp_angle_r	hip_flexion_l	hip_adduction_l	hip_rotation_l	knee_angle_l	knee_angle_l_beta	ankle_angle_l	subtalar_angle_l	mtp_angle_l	lumbar_extension	lumbar_bending	lumbar_rotation	arm_flex_r	arm_add_r	arm_rot_r	elbow_flex_r	pro_sup_r	wrist_flex_r	wrist_dev_r	arm_flex_l	arm_add_l	arm_rot_l	elbow_flex_l	pro_sup_l	wrist_flex_l	wrist_dev_l
      0.41000000	      6.57225760	      0.95143140	      2.61201424	     -0.72340084	      0.99655517	      0.21747713	     17.65899356	     -4.55245064	    -17.18428803	     32.66105679	      0.57004298	      2.94621475	      0.00000000	      0.00000000	    -15.72218255	      4.63554120	      2.49693651	      1.20668515	      0.02106063	      5.37284522	      0.00000000	      0.00000000	    -19.94058909	      1.77464749	     -9.80544061	     -6.61109808	     -7.76876913	      1.55902321	     34.36016350	     88.88541592	    -14.73710444	     -2.41389995	     -2.62915230	     -9.59338525	     -6.12561591	     63.34554988	     89.24607121	     -2.97584708	      2.99155073
      0.42000000	      6.65195997	      0.72490197	      2.55239158	     -0.70953431	      0.99445520	      0.21820951	     17.49445810	     -3.80085453	    -17.65556655	     28.37948723	      0.49531549	      3.02326301	      0.00000000	      0.00000000	    -16.75654421	      4.40346232	      2.13821659	      1.10618137	      0.01930651	      6.14280444	      0.00000000	      0.00000000	    -20.01202845	      2.10264137	     -9.86990356	     -6.65675484	     -7.77486421	      1.41941793	     34.37278963	     88.87460135	    -14.85281841	     -2.46697343	     -2.51411004	     -9.85937277	     -6.04842850	     64.95903684	     89.24024062	     -2.57547703	      3.02514921
      0.43000000	      7.12361913	      0.37249176	      2.57976879	     -0.69546269	      0.99286629	      0.21871353	     16.73798893	     -2.90080514	    -18.26737539	     23.94627573	      0.41794136	      2.78771979	      0.00000000	      0.00000000	    -18.20941925	      4.01063769	      1.80412995	      1.02221473	      0.01784101	      6.87561061	      0.00000000	      0.00000000	    -20.53751050	      2.62110265	     -9.98727209	     -6.66462062	     -7.83539187	      1.35476487	     34.51817267	     88.86521753	    -15.04827502	     -2.54141564	     -2.43352256	    -10.08398698	     -6.07295896	     66.66172236	     89.25427370	     -1.81213713	      3.23772534
      0.44000000	      7.08396644	      0.16177034	      2.30674591	     -0.68126288	      0.99022429	      0.21977004	     16.63393762	     -2.05191778	    -18.05502268	     19.84126108	      0.34629533	      2.59533693	      0.00000000	      0.00000000	    -19.07385407	      3.88072132	      1.13869074	      1.05601095	      0.01843087	      7.75728032	      0.00000000	      0.00000000	    -20.47140014	      2.86844182	     -9.87406803	     -6.70761101	     -7.86661731	      1.21720271	     34.57604184	     88.87382446	    -15.14771507	     -2.59629219	     -2.43223156	    -10.28859543	     -6.04288440	     68.15388263	     89.25990254	     -1.49625242	      3.15771037
      0.45000000	      7.30055005	      0.01067001	      2.14946744	     -0.66696965	      0.98796303	      0.22073808	     16.14349520	     -1.28502300	    -17.73461385	     15.86190018	      0.27684238	      2.31105868	      0.00000000	      0.00000000	    -20.20690436	      3.76190084	      0.62459837	      1.10137112	      0.01922255	      8.41173356	      0.00000000	      0.00000000	    -20.69306044	      3.08997641	     -9.85768773	     -6.74899452	     -7.87493171	      1.07836787	     34.72951198	     88.87125366	    -15.28492741	     -2.63308914	     -2.41724971	    -10.54961323	     -5.96152229	     69.61310514	     89.26970988	     -1.07307935	      3.07288074
      0.46000000	      7.27142633	     -0.07593427	      1.83126060	     -0.65253437	      0.98528606	      0.22185839	     15.95312452	     -0.59987004	    -16.88756352	     12.30387379	      0.21474311	      1.95010549	      0.00000000	      0.00000000	    -21.03744300	      3.77622357	     -0.04735931	      1.26279219	      0.02203988	      9.10198723	      0.00000000	      0.00000000	    -20.63675691	      3.19887948	     -9.71725795	     -6.79535544	     -7.89507368	      0.92205116	     34.85310730	     88.87763214	    -15.35760226	     -2.66475468	     -2.46829530	    -10.74893591	     -5.88538232	     70.91897518	     89.27864329	     -0.88547373	      2.85872779
      0.47000000	      7.29271600	     -0.12601569	      1.54897521	     -0.63797378	      0.98277804	      0.22289604	     15.67918773	     -0.02798623	    -15.87071510	      9.16299290	      0.15992440	      1.58114382	      0.00000000	      0.00000000	    -21.88886690	      3.80793896	     -0.65083489	      1.50258345	      0.02622503	      9.62813791	      0.00000000	      0.00000000	    -20.63344762	      3.29065743	     -9.59642905	     -6.84236777	     -7.91102225	      0.74575816	     35.00797558	     88.87795832	    -15.41700137	     -2.68188615	     -2.52645041	    -10.93963869	     -5.76860452	     72.08763197	     89.28729296	     -0.77109023	      2.56619397
      0.48000000	      7.29733264	     -0.15843901	      1.26714950	     -0.62322463	      0.98040668	      0.22385205	     15.42304280	      0.44330985	    -14.69846928	      6.54549622	      0.11424046	      1.22946173	      0.00000000	      0.00000000	    -22.67053414	      3.84508210	     -1.16364093	      1.87536214	      0.03273124	     10.02379136	      0.00000000	      0.00000000	    -20.58768792	      3.37243452	     -9.44287626	     -6.89854737	     -7.93195390	      0.53669826	     35.15070667	     88.87527733	    -15.45487051	     -2.67163458	     -2.60085022	    -11.07468310	     -5.62597821	     73.08632976	     89.29766269	     -0.73590665	      2.20587149
      0.49000000	      7.11199957	     -0.06890420	      1.12556982	     -0.60856616	      0.97798781	      0.22458306	     15.41534587	      0.65594312	    -13.49653902	      4.56308868	      0.07964092	      1.10498800	      0.00000000	      0.00000000	    -23.12929657	      3.93100444	     -1.43593404	      2.46247078	      0.04297822	     10.31110319	      0.00000000	      0.00000000	    -20.33737853	      3.38165269	     -9.46756445	     -6.92548927	     -7.91339325	      0.33166435	     35.25514907	     88.86601838	    -15.48706346	     -2.68303232	     -2.68652784	    -11.22455781	     -5.44802653	     73.85116383	     89.30141299	     -0.71133817	      1.98290316
      0.50000000	      7.05639877	     -0.10892049	      0.87589073	     -0.59366055	      0.97604069	      0.22540485	     15.27408108	      0.97337150	    -12.26879573	      3.13134198	      0.05465223	      0.79836001	      0.00000000	      0.00000000	    -23.65139882	      3.89456054	     -1.82184411	      3.25275535	      0.05677129	     10.41487811	      0.00000000	      0.00000000	    -20.23342946	      3.50425055	     -9.32183582	     -6.91857343	     -7.95228421	      0.16654689	     35.36030004	     88.86166096	    -15.49681152	     -2.69798575	     -2.81719439	    -11.26823795	     -5.31984685	     74.52834294	     89.31287871	     -0.71170596	      1.69376692
      0.51000000	      6.96638882	     -0.21138405	      0.70525568	     -0.57875117	      0.97437380	      0.22627654	     15.25685804	      1.28885704	    -11.36776063	      2.39299668	      0.04176567	      0.71243563	      0.00000000	      0.00000000	    -24.04162270	      3.71608163	     -1.90915474	      4.20180023	      0.07333525	     10.12252246	      0.00000000	      0.00000000	    -20.13168319	      3.68288027	     -9.12949050	     -6.90744902	     -7.97909654	      0.08109976	     35.40144517	     88.85690614	    -15.49585774	     -2.69851628	     -2.91671336	    -11.28245879	     -5.15705999	     75.07981611	     89.36254460	     -0.69972925	      1.48544290
      0.52000000	      7.12236489	     -0.42589707	      0.26814907	     -0.56366071	      0.97347225	      0.22735995	     14.90583300	      1.74540262	     -9.93595624	      1.96514001	      0.03429816	     -0.04668092	      0.00000000	      0.00000000	    -24.55835887	      3.50815892	     -2.71133861	      5.47552738	      0.09556598	      9.97435224	      0.00000000	      0.00000000	    -20.31704953	      3.95708459	     -8.70602763	     -6.84778096	     -8.05441487	     -0.14202125	     35.55339433	     88.85309352	    -15.44791210	     -2.69680038	     -3.07241161	    -11.12180424	     -5.15218888	     75.40055158	     89.33584729	     -0.80836153	      0.92534063
      0.53000000	      7.16475679	     -0.68766925	      0.02165391	     -0.54830185	      0.97274233	      0.22823148	     14.69123304	      2.17615387	     -8.86624086	      2.05998622	      0.03595354	     -0.50368081	      0.00000000	      0.00000000	    -24.85654585	      3.13901416	     -3.07724660	      6.92771143	      0.12091137	      9.26552381	      0.00000000	      0.00000000	    -20.32100327	      4.33169398	     -8.17044639	     -6.99321722	     -8.09383937	     -0.65488136	     35.81730992	     88.85724631	    -15.16165317	     -2.51531198	     -3.04125934	    -10.97033442	     -4.62241164	     75.20188699	     89.34021329	     -1.69365052	     -0.46413772
